#!OML:ASF H:\ManfredETheater\Project 1\Capture day 1\Session 1\subject.ASF
:FULLY-SPECIFIED
:DEGREES
190
root -2.30426 16.1473 33.7114 7.8026 0.486419 -5.84277
lowerback 9.09662 0.754234 3.29482
upperback -2.52481 1.7984 5.15994
thorax -7.87302 0.862181 3.33448
lowerneck -17.9723 -0.553264 -1.9155
upperneck 19.8145 0.859347 -4.64099
head 9.23558 -0.269297 -1.16766
rclavicle 3.67752e-015 -2.62396e-014
rhumerus -44.9938 1.07346 -82.9719
rradius 90.1727
rwrist -6.04242
rhand -21.6458 7.48396
rfingers 7.12502
rthumb 4.75082 -22.4428
lclavicle 3.67752e-015 -2.62396e-014
lhumerus -66.1435 -12.1954 94.0006
lradius 92.1466
lwrist 8.05266
lhand -23.7178 -20.1213
lfingers 7.12502
lthumb 2.74986 9.84075
rfemur -3.73161 -2.69128 35.7684
rtibia 36.1612
rfoot -24.7304 -14.3315
rtoes -27.0206
lfemur -45.0245 5.87162 -7.59538
ltibia 105.757
lfoot -5.5959 -8.91122
ltoes 1.78064
191
root -2.33188 16.1141 34.2175 7.70067 0.369403 -6.26894
lowerback 9.19811 0.939379 3.72895
upperback -2.47441 2.10378 5.17431
thorax -7.87489 0.990364 3.05534
lowerneck -17.8938 -0.658859 -1.95671
upperneck 19.9084 0.656514 -4.34176
head 9.24775 -0.334017 -1.08462
rclavicle -1.02374e-014 1.74931e-014
rhumerus -43.5824 1.84694 -84.3929
rradius 92.5948
rwrist -6.97671
rhand -21.7776 8.08859
rfingers 7.12502
rthumb 4.62352 -21.841
lclavicle -1.02374e-014 1.74931e-014
lhumerus -67.8262 -12.3266 94.3546
lradius 92.7587
lwrist 8.72796
lhand -23.4652 -20.1639
lfingers 7.12502
lthumb 2.99388 9.79485
rfemur -0.989157 -2.99485 35.9873
rtibia 34.6407
rfoot -23.9798 -13.1827
rtoes -28.857
lfemur -47.5489 5.52128 -8.04442
ltibia 103.513
lfoot -6.65564 -7.7306
ltoes 0.213586
192
root -2.35886 16.0992 34.7392 7.73569 0.239618 -6.67553
lowerback 9.11057 1.15211 4.21201
upperback -2.50298 2.43847 5.1243
thorax -7.84347 1.12898 2.67845
lowerneck -17.7693 -0.813823 -2.02936
upperneck 20.0761 0.373133 -3.94946
head 9.27644 -0.429034 -0.975172
rclavicle 6.65929e-015 -1.35174e-014
rhumerus -42.5159 2.78893 -85.8344
rradius 95.2693
rwrist -7.96094
rhand -21.8934 8.72675
rfingers 7.12502
rthumb 4.51167 -21.2052
lclavicle 6.65929e-015 -1.35174e-014
lhumerus -69.6786 -12.6973 94.8397
lradius 93.7233
lwrist 9.6154
lhand -23.101 -20.1142
lfingers 7.12502
lthumb 3.34561 9.83929
rfemur 1.6969 -3.24758 36.1322
rtibia 32.8985
rfoot -22.7069 -11.7157
rtoes -30.5287
lfemur -49.8178 5.14918 -8.50263
ltibia 100.661
lfoot -7.64871 -6.59579
ltoes -1.07061
193
root -2.38531 16.1014 35.2751 7.91873 0.0939196 -7.0299
lowerback 8.82748 1.39416 4.69698
upperback -2.60501 2.79548 5.00561
thorax -7.76805 1.27704 2.22999
lowerneck -17.6135 -1.01063 -2.12703
upperneck 20.3056 0.0217529 -3.48562
head 9.32171 -0.550158 -0.845973
rclavicle 3.40916e-014 1.98785e-014
rhumerus -41.7318 3.91718 -87.261
rradius 98.0491
rwrist -8.76822
rhand -22.0137 9.37683
rfingers 7.12502
rthumb 4.39553 -20.5576
lclavicle 3.40916e-014 1.98785e-014
lhumerus -71.6365 -13.2055 95.4002
lradius 94.9014
lwrist 10.5916
lhand -22.6612 -19.9715
lfingers 7.12502
lthumb 3.77028 9.97492
rfemur 4.24678 -3.46133 36.1564
rtibia 31.0279
rfoot -20.883 -9.90526
rtoes -31.8821
lfemur -51.8297 4.76207 -8.98597
ltibia 97.2267
lfoot -8.59494 -5.58571
ltoes -2.14803
194
root -2.41098 16.1178 35.8245 8.23663 -0.0466783 -7.32059
lowerback 8.34943 1.65633 5.16337
upperback -2.76775 3.15738 4.82423
thorax -7.63452 1.42775 1.73414
lowerneck -17.435 -1.24029 -2.24961
upperneck 20.583 -0.382024 -2.96978
head 9.38173 -0.691922 -0.701497
rclavicle 5.96354e-016 1.66979e-014
rhumerus -41.1821 5.22453 -88.6426
rradius 100.816
rwrist -9.22049
rhand -22.1235 10.0314
rfingers 7.12502
rthumb 4.28947 -19.9052
lclavicle 5.96354e-016 1.66979e-014
lhumerus -73.6376 -13.7457 95.9761
lradius 96.1567
lwrist 11.5138
lhand -22.1939 -19.7806
lfingers 7.12502
lthumb 4.22149 10.1573
rfemur 6.60864 -3.67578 36.0329
rtibia 29.1286
rfoot -18.4682 -7.76398
rtoes -32.6772
lfemur -53.5768 4.34826 -9.48264
ltibia 93.2516
lfoot -9.5551 -4.73866
ltoes -3.17584
195
root -2.43701 16.1454 36.3843 8.6448 -0.189673 -7.52445
lowerback 7.73416 1.9371 5.54803
upperback -2.96036 3.51744 4.59196
thorax -7.44641 1.58176 1.24148
lowerneck -17.284 -1.49054 -2.39759
upperneck 20.9029 -0.815221 -2.42413
head 9.4652 -0.846203 -0.546609
rclavicle -3.10104e-014 -1.74931e-014
rhumerus -40.8027 6.69527 -89.9475
rradius 103.49
rwrist -9.23804
rhand -22.1811 10.701
rfingers 7.12502
rthumb 4.23387 -19.2367
lclavicle -3.10104e-014 -1.74931e-014
lhumerus -75.5921 -14.2334 96.5097
lradius 97.3748
lwrist 12.2883
lhand -21.7226 -19.5732
lfingers 7.12502
lthumb 4.67666 10.3552
rfemur 8.74934 -3.88283 35.7419
rtibia 27.3047
rfoot -15.3242 -5.45505
rtoes -32.8045
lfemur -55.0355 3.91833 -9.99683
ltibia 88.7652
lfoot -10.4094 -4.19031
ltoes -3.83551
196
root -2.46357 16.1799 36.9518 9.09022 -0.316069 -7.63272
lowerback 7.04098 2.22004 5.82492
upperback -3.15969 3.85633 4.32193
thorax -7.21676 1.73147 0.783017
lowerneck -17.1842 -1.74905 -2.56918
upperneck 21.26 -1.25697 -1.86757
head 9.57537 -1.00494 -0.385566
rclavicle -2.56432e-014 -2.22639e-014
rhumerus -40.5612 8.30516 -91.1572
rradius 106.014
rwrist -8.84096
rhand -22.1604 11.4117
rfingers 7.12502
rthumb 4.25384 -18.5256
lclavicle -2.56432e-014 -2.22639e-014
lhumerus -77.4392 -14.6029 96.9492
lradius 98.4943
lwrist 12.8964
lhand -21.2547 -19.3656
lfingers 7.12502
lthumb 5.12846 10.5524
rfemur 10.6646 -4.08408 35.286
rtibia 25.656
rfoot -11.4541 -3.16506
rtoes -31.8395
lfemur -56.1727 3.45847 -10.5277
ltibia 83.8147
lfoot -11.1538 -3.96479
ltoes -4.42055
197
root -2.49097 16.2164 37.5252 9.51424 -0.444364 -7.65462
lowerback 6.32809 2.49956 5.97909
upperback -3.33728 4.17171 4.03047
thorax -6.95298 1.87706 0.382723
lowerneck -17.1607 -2.00597 -2.76414
upperneck 21.6481 -1.69127 -1.30941
head 9.71535 -1.16132 -0.219786
rclavicle -2.5196e-014 -4.45278e-014
rhumerus -40.4334 10.0315 -92.2625
rradius 108.367
rwrist -8.13614
rhand -22.0481 12.143
rfingers 7.12502
rthumb 4.36231 -17.7921
lclavicle -2.5196e-014 -4.45278e-014
lhumerus -79.1332 -14.828 97.2683
lradius 99.4667
lwrist 13.3156
lhand -20.889 -19.2293
lfingers 7.12502
lthumb 5.48153 10.6798
rfemur 12.3723 -4.25849 34.6886
rtibia 24.3001
rfoot -7.08904 -1.15192
rtoes -29.6298
lfemur -56.9525 2.98493 -11.0576
ltibia 78.4625
lfoot -11.7644 -4.07445
ltoes -5.08094
198
root -2.51842 16.2507 38.1019 9.84696 -0.553313 -7.59786
lowerback 5.671 2.75778 6.03619
upperback -3.46744 4.4502 3.72329
thorax -6.67283 2.01051 0.029872
lowerneck -17.2122 -2.25615 -2.98158
upperneck 22.0431 -2.11138 -0.751662
head 9.8766 -1.31172 -0.0490573
rclavicle -1.10822e-014 -2.38542e-014
rhumerus -40.3968 11.8269 -93.2561
rradius 110.545
rwrist -7.25618
rhand -21.8357 12.8956
rfingers 7.12502
rthumb 4.56745 -17.0352
lclavicle -1.10822e-014 -2.38542e-014
lhumerus -80.6506 -14.9111 97.4512
lradius 100.296
lwrist 13.5965
lhand -20.6582 -19.0318
lfingers 7.12502
lthumb 5.70436 10.8714
rfemur 13.8446 -4.40963 33.9824
rtibia 23.4573
rfoot -2.64854 0.342446
rtoes -26.3898
lfemur -57.3538 2.45478 -11.5659
ltibia 72.8039
lfoot -12.1253 -4.45919
ltoes -5.43794
